<svg width="28" height="28" viewBox="0 0 28 28" fill="none" xmlns="http://www.w3.org/2000/svg">
<circle cx="14" cy="14" r="14" fill="#F1F1F1"/>
<path d="M19.7178 9.79107C19.2107 9.2875 18.3937 9.2875 17.8902 9.79107L12.2303 15.4571L10.1098 13.3384C9.60266 12.8348 8.7857 12.8348 8.28213 13.3384C7.77856 13.8455 7.77856 14.6625 8.28213 15.1661L11.1937 18.075C11.2286 18.1205 11.2669 18.1652 11.3089 18.2071C11.6178 18.5161 12.0437 18.6366 12.4419 18.5687C12.7027 18.5277 12.9536 18.4071 13.1536 18.2071C13.1955 18.1652 13.2339 18.1205 13.2687 18.0741L19.7178 11.6187C20.2214 11.1116 20.2214 10.2946 19.7178 9.79107V9.79107Z" fill="#5E28D0"/>
</svg>
